{
 "asset": {
  "version": "2.0",
  "generator": "Galaxy plan.md S2.1.2 - patrol_1 rudimentary hull, hand-authored"
 },
 "scene": 0,
 "scenes": [
  {
   "nodes": [
    0
   ]
  }
 ],
 "nodes": [
  {
   "mesh": 0,
   "name": "patrol_1_hull"
  }
 ],
 "meshes": [
  {
   "name": "patrol_1_hull",
   "primitives": [
    {
     "attributes": {
      "POSITION": 0,
      "NORMAL": 1,
      "COLOR_0": 2
     },
     "indices": 3,
     "material": 0,
     "mode": 4
    }
   ]
  }
 ],
 "materials": [
  {
   "name": "patrol_1_flat",
   "pbrMetallicRoughness": {
    "baseColorFactor": [
     1,
     1,
     1,
     1
    ],
    "metallicFactor": 0.0,
    "roughnessFactor": 0.9
   }
  }
 ],
 "buffers": [
  {
   "byteLength": 2856,
   "uri": "data:application/octet-stream;base64,"
  }
 ],
 "bufferViews": [
  {
   "buffer": 0,
   "byteOffset": 0,
   "byteLength": 792,
   "target": 34962
  },
  {
   "buffer": 0,
   "byteOffset": 792,
   "byteLength": 792,
   "target": 34962
  },
  {
   "buffer": 0,
   "byteOffset": 1584,
   "byteLength": 1056,
   "target": 34962
  },
  {
   "buffer": 0,
   "byteOffset": 2640,
   "byteLength": 216,
   "target": 34963
  }
 ],
 "accessors": [
  {
   "bufferView": 0,
   "componentType": 5126,
   "count": 66,
   "type": "VEC3",
   "min": [
    -1.5,
    -0.6,
    -6.0
   ],
   "max": [
    1.5,
    2.2,
    6.0
   ]
  },
  {
   "bufferView": 1,
   "componentType": 5126,
   "count": 66,
   "type": "VEC3"
  },
  {
   "bufferView": 2,
   "componentType": 5126,
   "count": 66,
   "type": "VEC4"
  },
  {
   "bufferView": 3,
   "componentType": 5123,
   "count": 108,
   "type": "SCALAR"
  }
 ]
}