{
 "asset": {
  "version": "2.0",
  "generator": "Galaxy plan.md S2.1.2 - escort_1 rudimentary hull, hand-authored"
 },
 "scene": 0,
 "scenes": [
  {
   "nodes": [
    0
   ]
  }
 ],
 "nodes": [
  {
   "mesh": 0,
   "name": "escort_1_hull"
  }
 ],
 "meshes": [
  {
   "name": "escort_1_hull",
   "primitives": [
    {
     "attributes": {
      "POSITION": 0,
      "NORMAL": 1,
      "COLOR_0": 2
     },
     "indices": 3,
     "material": 0,
     "mode": 4
    }
   ]
  }
 ],
 "materials": [
  {
   "name": "escort_1_flat",
   "pbrMetallicRoughness": {
    "baseColorFactor": [
     1,
     1,
     1,
     1
    ],
    "metallicFactor": 0.0,
    "roughnessFactor": 0.9
   }
  }
 ],
 "buffers": [
  {
   "byteLength": 3384,
   "uri": "data:application/octet-stream;base64,"
  }
 ],
 "bufferViews": [
  {
   "buffer": 0,
   "byteOffset": 0,
   "byteLength": 936,
   "target": 34962
  },
  {
   "buffer": 0,
   "byteOffset": 936,
   "byteLength": 936,
   "target": 34962
  },
  {
   "buffer": 0,
   "byteOffset": 1872,
   "byteLength": 1248,
   "target": 34962
  },
  {
   "buffer": 0,
   "byteOffset": 3120,
   "byteLength": 264,
   "target": 34963
  }
 ],
 "accessors": [
  {
   "bufferView": 0,
   "componentType": 5126,
   "count": 78,
   "type": "VEC3",
   "min": [
    -2.5,
    -1.0,
    -11.0
   ],
   "max": [
    2.5,
    3.4,
    11.0
   ]
  },
  {
   "bufferView": 1,
   "componentType": 5126,
   "count": 78,
   "type": "VEC3"
  },
  {
   "bufferView": 2,
   "componentType": 5126,
   "count": 78,
   "type": "VEC4"
  },
  {
   "bufferView": 3,
   "componentType": 5123,
   "count": 132,
   "type": "SCALAR"
  }
 ]
}